<?xml version="1.0" encoding="UTF-8" standalone="no"?><!DOCTYPE svg PUBLIC "-//W3C//DTD SVG 1.1//EN" "http://www.w3.org/Graphics/SVG/1.1/DTD/svg11.dtd"><svg width="100%" height="100%" viewBox="0 0 4167 4167" version="1.1" xmlns="http://www.w3.org/2000/svg" xmlns:xlink="http://www.w3.org/1999/xlink" xml:space="preserve" xmlns:serif="http://www.serif.com/" style="fill-rule:evenodd;clip-rule:evenodd;stroke-linejoin:round;stroke-miterlimit:2;"><rect id="CDU" x="0" y="0" width="4166.67" height="4166.67" style="fill:none;"/><clipPath id="_clip1"><rect id="CDU1" serif:id="CDU" x="0" y="0" width="4166.67" height="4166.67"/></clipPath><g clip-path="url(#_clip1)"><rect x="0" y="0" width="4166.67" height="4166.67" style="fill:#d3d3d3;"/><g><path id="path10201" d="M1992.12,1779.25c82.844,0 132.822,12.977 170.805,44.217c63.124,51.943 88.842,149.188 72.442,256.733c-24.091,157.625 -90.739,300.578 -314.402,300.578l-193.846,0l92.129,-601.528l172.872,0Zm116.727,-226.95c338.629,0 527.596,198.657 490.629,527.832c-36.221,322.839 -210.923,534.271 -617.013,534.271l-648.152,0l162.809,-1062.1l611.727,0" style="fill:#ed1c24;"/><path id="path10203" d="M3168,1552.3l-91.315,595.633c-20.398,133.127 53.061,232.438 195.438,232.438c121.302,0 223.426,-81.624 246.568,-232.472l91.315,-595.599l358.315,0l-85.792,559.615c-47.267,308.439 -219.326,520.785 -635.954,520.785c-276.792,0 -430.35,-100.159 -496.592,-229.186c-49.571,-96.568 -51.773,-210.178 -37.17,-305.457l83.658,-545.757l371.529,0" style="fill:#ed1c24;fill-rule:nonzero;"/><path id="path10205" d="M1238.42,2331.61c-53.502,16.569 -176.057,30.631 -298.104,30.631c-275.2,0 -370.479,-129.4 -360.314,-282.112c11.317,-170.127 158.2,-290.345 443.632,-290.345c115.102,0 238.233,29.546 268.118,38.864l38.458,-249.651c-52.96,-14.841 -203.876,-45.065 -410.597,-45.065c-507.604,0 -681.289,280.587 -714.325,485.953c-46.454,288.787 137.769,612.845 627.042,612.845c155.897,0 315.249,-23.108 366.752,-46.996l39.338,-254.124" style="fill:#ed1c24;fill-rule:nonzero;"/></g></g></svg>