<?xml version="1.0" encoding="UTF-8" standalone="no"?><!DOCTYPE svg PUBLIC "-//W3C//DTD SVG 1.1//EN" "http://www.w3.org/Graphics/SVG/1.1/DTD/svg11.dtd"><svg width="100%" height="100%" viewBox="0 0 4167 4167" version="1.1" xmlns="http://www.w3.org/2000/svg" xmlns:xlink="http://www.w3.org/1999/xlink" xml:space="preserve" xmlns:serif="http://www.serif.com/" style="fill-rule:evenodd;clip-rule:evenodd;stroke-linejoin:round;stroke-miterlimit:2;"><rect id="FDP" x="0" y="0" width="4166.67" height="4166.67" style="fill:none;"/><clipPath id="_clip1"><rect id="FDP1" serif:id="FDP" x="0" y="0" width="4166.67" height="4166.67"/></clipPath><g clip-path="url(#_clip1)"><rect x="0" y="0" width="4166.67" height="4166.67" style="fill:#e5007d;"/><g><g><path d="M2953.35,1657.32l-120.002,0l0,-180.004l492.01,0c288.007,0 444.01,120.003 444.01,360.008c0,228.005 -156.003,384.008 -396.009,384.008l-168.003,0l0,288.007l120.002,0l0,180.004l-492.01,0l0,-180.004l120.002,0l0,-852.019Zm384.009,396.009c120.002,0 192.004,-72.002 192.004,-192.005c0,-120.002 -72.002,-192.004 -192.004,-192.004l-132.003,0l0,384.009c0,0 132.003,0 132.003,0Z" style="fill:#ffed00;fill-rule:nonzero;"/><path d="M2617.35,2065.33c0,-372.008 -204.004,-576.013 -540.012,-576.013l-564.012,0l0,168.004l132.003,0l0,852.019l-132.003,0l0,180.004l576.012,0c324.008,0 528.012,-252.006 528.012,-624.014m-276.006,0c0,324.007 -120.003,444.01 -312.007,444.01l-144.003,0l0,-852.019l144.003,0c204.005,0 312.007,108.002 312.007,408.009" style="fill:#ffed00;fill-rule:nonzero;"/></g><path d="M1057.31,1741.33l204.004,0l0,-252.006l-864.018,0l0,168.004l132.002,0l0,852.019l-108.002,0l0,180.004l492.011,0l0,-180.004l-144.003,0l0,-324.007l372.008,0l0,-180.004l-372.008,0l0,-348.008l288.006,0l0,84.002Z" style="fill:#ffed00;fill-rule:nonzero;"/></g></g></svg>