<?xml version="1.0" encoding="UTF-8" standalone="no"?><!DOCTYPE svg PUBLIC "-//W3C//DTD SVG 1.1//EN" "http://www.w3.org/Graphics/SVG/1.1/DTD/svg11.dtd"><svg width="100%" height="100%" viewBox="0 0 8000 8000" version="1.1" xmlns="http://www.w3.org/2000/svg" xmlns:xlink="http://www.w3.org/1999/xlink" xml:space="preserve" xmlns:serif="http://www.serif.com/" style="fill-rule:evenodd;clip-rule:evenodd;stroke-linejoin:round;stroke-miterlimit:2;"><rect id="ArtBoard1" x="-0" y="0" width="8000" height="8000" style="fill:none;"/><clipPath id="_clip1"><rect x="-0" y="0" width="8000" height="8000"/></clipPath><g clip-path="url(#_clip1)"><rect x="0" y="0" width="8000" height="8000" style="fill:#c9ced1;"/><g><path d="M-333.659,4823.04c2666.9,325.537 5571.02,481.292 8632.7,530.484l34.622,631.573c-3016.11,-89.834 -5900.39,-341.927 -8659.92,-747.565l-7.401,-414.492Z" style="fill:url(#_Linear2);"/><path d="M1136.25,2514.9l1532.1,-0l-59.762,359.093l-1075.73,-0l-103.227,597.626l923.602,0l-59.762,347.709l-912.737,-0l-168.42,912.219l-456.369,0l380.306,-2216.65Z" style="fill:#2e314b;"/><path d="M2767.41,2514.9l438.984,-0l65.196,1506.59l673.685,-1506.59l330.326,-0l160.815,1493.55l582.414,-1493.55l425.942,-0l-899.698,2216.65l-395.519,0l-169.508,-1422.87l-660.649,1422.87l-417.251,0l-134.737,-2216.65Z" style="fill:#2e314b;"/><path d="M5701.21,2514.9l1503.84,-0l-52.157,346.104l-1060.51,0l-95.619,534.604l899.698,-0l-52.157,356.403l-912.737,0l-95.621,612.838l1056.17,0l-56.502,366.698l-1521.23,0l386.828,-2216.65Z" style="fill:#2e314b;"/></g></g><defs><linearGradient id="_Linear2" x1="0" y1="0" x2="1" y2="0" gradientUnits="userSpaceOnUse" gradientTransform="matrix(8667.32,0,0,1162.06,-333.659,5404.07)"><stop offset="0" style="stop-color:#c9ced1;stop-opacity:0"/><stop offset="0.09" style="stop-color:#d4ac88;stop-opacity:0.42"/><stop offset="0.2" style="stop-color:#de8a41;stop-opacity:0.82"/><stop offset="0.5" style="stop-color:#e37b22;stop-opacity:1"/><stop offset="0.8" style="stop-color:#de8a41;stop-opacity:0.82"/><stop offset="0.91" style="stop-color:#d4ab88;stop-opacity:0.42"/><stop offset="1" style="stop-color:#c9ced1;stop-opacity:0"/></linearGradient></defs></svg>