<?xml version="1.0" encoding="UTF-8" standalone="no"?><!DOCTYPE svg PUBLIC "-//W3C//DTD SVG 1.1//EN" "http://www.w3.org/Graphics/SVG/1.1/DTD/svg11.dtd"><svg width="100%" height="100%" viewBox="0 0 4167 4167" version="1.1" xmlns="http://www.w3.org/2000/svg" xmlns:xlink="http://www.w3.org/1999/xlink" xml:space="preserve" xmlns:serif="http://www.serif.com/" style="fill-rule:evenodd;clip-rule:evenodd;stroke-linejoin:round;stroke-miterlimit:2;"><rect id="Gruene" x="0" y="0" width="4166.67" height="4166.67" style="fill:none;"/><clipPath id="_clip1"><rect id="Gruene1" serif:id="Gruene" x="0" y="0" width="4166.67" height="4166.67"/></clipPath><g clip-path="url(#_clip1)"><rect x="0" y="0" width="4166.67" height="4166.67" style="fill:#1fa12d;"/><rect x="85.798" y="879.927" width="3995.07" height="2406.81" style="fill:#1fa12d;fill-rule:nonzero;"/><path d="M380.884,2991.89l2091.95,0l20.339,-120.437l-2091.95,0l-20.275,120.437" style="fill:#0066ac;fill-rule:nonzero;"/><path d="M3785.54,1945.6c0,-4.565 -12.012,-8.665 -19.86,-14.991c-25.945,-21.765 -119.315,-113.55 -302.853,-107.608c-23.223,0.801 -44.363,2.915 -63.582,6.23c38.918,-12.7 59.258,-20.276 70.949,-24.984c14.254,-5.606 107.945,-37.717 158.394,-202.276c4.484,-14.094 16.496,-48.015 13.453,-50.561c-3.844,-3.171 -35.235,2.45 -67.105,21.845c-31.871,19.395 -139.015,36.323 -151.988,38.389c-7.367,1.121 -38.917,-3.539 -86.003,21.205c53.011,-54.485 109.226,-131.936 124.441,-240.585c7.207,-52.131 4.003,-73.399 2.082,-73.255c-3.204,0.16 -4.805,0.16 -8.809,1.441c-11.851,3.46 -23.863,13.469 -62.621,39.558c-39.238,26.106 -80.558,55.014 -80.558,55.014c0,0 14.094,-142.01 9.61,-145.213c-4.164,-3.203 -84.883,-2.402 -208.522,135.283c0,0 14.093,-117.986 -9.129,-162.509c0,0 -6.406,-32.224 -11.531,-49.04c-2.403,-8.408 -8.969,-17.216 -10.09,-16.624c-1.922,0 -12.332,2.803 -29.949,23.03c-27.227,31.231 -153.909,69.46 -175.05,233.491c-16.015,-66.209 -49.648,-154.822 -132.929,-199.666c-46.925,-46.044 -67.745,-59.658 -70.148,-58.456c-2.242,0 -2.082,21.428 -8.488,67.473c-8.008,51.746 -15.215,68.082 -15.215,68.082c0,0 -87.284,-76.698 -89.366,-78.893c-4.004,-4.212 -57.336,164.304 -41.641,248.401c0,0 -27.706,-21.381 -77.995,-47.214c-57.015,-29.276 -152.948,-34.305 -152.308,-29.821c2.082,7.56 81.039,163.551 114.671,218.34c0,0 -215.088,-36.964 -211.404,-23.527c2.082,4.437 6.406,12.893 15.054,48.784c0,0 -84.402,-1.81 -83.441,5.157c1.922,7.799 64.062,111.548 68.867,117.217c0,0 -65.343,12.62 -79.117,13.373c-9.449,0.32 43.723,146.75 188.823,183.266c20.66,5.173 40.359,8.984 59.578,11.771c16.496,1.602 36.515,3.523 53.972,5.157c86.484,3.443 143.019,-18.738 133.25,-50.721c0,0 -2.883,-11.852 -91.289,-44.187c0,0 2.402,-10.57 8.328,-12.012c5.926,-1.441 98.015,32.304 91.609,26.922c-6.566,-5.477 -40.359,-42.953 -34.273,-42.633c5.925,0.16 49.327,18.594 63.741,5.125c13.774,-12.876 22.422,-36.515 31.391,-41.688c8.969,-5.141 -24.023,-35.795 19.539,-21.701c0,0 29.468,-16.608 6.246,-43.755c-23.223,-27.226 -97.054,-114.639 23.383,-9.145c28.827,25.273 100.897,-51.698 94.972,-93.53c0,0 28.988,29.036 35.074,32.143c5.925,3.123 46.284,7.912 55.573,-6.07c4.164,-6.406 -14.894,-66 -2.562,-92.185c0,0 5.125,-0.321 9.929,5.093c4.805,5.605 5.446,67.761 27.227,79.549c0,0 24.664,-14.398 28.828,-25.129c4.324,-10.826 -6.727,67.154 67.105,33.537c0,0 35.875,-31.935 46.285,-32.864c10.25,-0.961 -7.848,37.877 1.922,51.698c9.128,13.838 39.238,23.111 48.847,5.814c9.609,-17.313 55.734,-51.89 59.257,-50.513c3.684,1.441 -23.382,73.479 -26.425,80.558c-4.485,10.234 -7.688,25.481 -7.688,25.481c0,0 3.524,20.131 28.508,25.673c0,0 47.566,-27.691 96.894,-63.71c-5.125,6.246 -10.41,12.7 -15.535,19.619c0,0 -63.902,65.615 -63.902,75.113c0,9.513 21.781,30.813 39.718,18.738c17.938,-11.98 61.18,-29.901 65.023,-26.778c3.524,3.123 10.57,11.963 1.922,17.168c-8.969,5.125 -59.257,31.439 -59.257,31.439c0,0 57.495,3.924 127.804,-10.298c-76.074,30.878 -102.5,77.835 -101.859,82.304c2.402,15.07 120.437,-15.551 123.64,-8.104c16.976,38.517 -37.477,14.734 -61.18,18.738c-23.863,3.924 -85.202,5.301 -28.667,53.604c0,0 10.41,0.801 -17.457,17.217c-28.027,16.464 61.82,26.169 72.71,38.116c10.57,11.996 -89.366,-1.281 -87.284,28.892c1.921,30.078 -17.137,11.115 49.167,81.856c0,0 -39.878,-9.257 -44.363,-3.636c-4.804,5.638 86.964,81.743 86.484,103.396c0,0 -18.738,12.957 -26.746,1.602c-8.008,-11.371 -63.421,-72.742 -72.39,-74.552c-6.887,-1.442 -19.699,1.81 -25.625,13.709c0,0 24.184,56.503 16.656,58.104c-7.687,1.602 -45.644,-25.16 -45.644,-25.16c0,0 -24.824,10.987 -16.656,33.552c8.008,22.518 75.593,99.217 71.91,103.909c0,0 -5.926,12.636 -14.414,11.74c-8.809,-0.961 -55.734,-85.603 -67.105,-88.871c-11.692,-3.235 13.453,79.117 13.453,79.117c0,0 -42.281,-44.443 -53.492,-53.732c-11.211,-9.289 -12.973,9.834 -12.973,9.834l12.332,93.963c0,0 -131.487,-196.046 -99.456,37.748c0,0 -3.043,13.245 -7.367,12.781c-4.325,-0.481 -32.352,-77.355 -29.149,-98.368c3.204,-21.028 -22.902,58.249 -22.902,58.249c0,0 -41.32,-163.759 -126.843,4.132c0,0 -5.765,-63.438 -18.898,-74.296c-13.133,-10.875 -23.543,-14.671 -27.226,-14.767c-2.883,0 -20.02,-0.64 -35.715,28.62c-60.218,78.06 -98.656,178.413 -109.706,265.377c-1.922,60.219 4.965,168.964 2.082,192.186c-2.082,13.774 0,15.215 3.203,19.7c0,1.601 23.222,-17.137 30.109,-21.942c10.73,-7.047 120.597,-154.71 127.323,-191.705c0,0 58.777,257.369 78.476,284.916c4.485,5.925 7.848,12.492 10.891,7.847c5.766,-9.129 14.574,-33.152 21.14,-35.074c8.489,-2.562 33.313,-5.605 46.285,-42.281c12.973,-36.835 36.516,-72.55 47.406,-167.842c0,0 124.441,158.713 140.616,173.448c6.407,5.925 40.199,-50.289 55.094,-140.777c14.894,-90.327 -17.137,-211.885 -37.476,-216.049c0,0 -8.489,-13.293 15.214,-4.805c13.453,4.805 65.183,94.812 184.819,163.038c20.02,11.531 62.781,11.692 62.941,10.891c9.61,-26.746 -84.081,-272.2 -84.081,-272.2c0,0 2.242,-2.803 21.14,4.949c18.899,7.735 197.952,123.592 306.377,69.267c22.102,-10.971 23.543,-13.341 23.543,-13.341c12.332,-53.428 -83.281,-154.566 -142.058,-200.546c0,0 154.23,-6.246 178.093,-47.15c0,0 28.347,-10.25 42.922,-30.493c2.722,-3.588 -16.496,-38.774 -38.758,-54.229c-58.297,-40.423 -70.949,-55.638 -70.949,-55.638c0,0 16.336,-19.683 39.879,-27.05c23.383,-7.367 99.456,-54.293 79.277,-77.403c0,0 24.503,-21.269 23.382,-26.826" style="fill:#ffe400;fill-rule:nonzero;"/><path d="M963.272,1992.14c-5.333,-6.07 -12.396,-9.097 -21.14,-9.097c-8.905,0 -16.977,2.979 -24.2,8.921c-7.207,5.926 -11.531,13.052 -12.876,21.413c-1.442,8.488 0.32,15.711 5.717,21.604c5.253,5.942 12.38,8.905 21.429,8.905c8.728,0 16.736,-2.963 23.959,-8.905c7.191,-5.893 11.467,-12.94 12.829,-21.028c1.441,-8.632 -0.321,-15.887 -5.718,-21.813m-88.934,0c-5.125,-5.942 -12.108,-8.921 -21.012,-8.921c-8.745,0 -16.753,2.979 -23.992,8.921c-7.207,5.926 -11.499,13.133 -12.908,21.589c-1.442,8.36 0.64,15.519 5.765,21.413c5.237,5.973 12.252,8.936 21.013,8.936c8.648,0 16.56,-2.963 23.783,-8.936c7.351,-6.038 11.723,-13.165 13.1,-21.413c1.442,-8.456 -0.64,-15.663 -5.749,-21.589m-1.121,267.763c-2.194,13.261 -5.253,22.518 -9.225,27.723c-3.924,4.981 -9.882,7.447 -17.889,7.447c-7.8,0 -12.845,-2.674 -15.215,-8.007c-2.435,-5.333 -2.547,-14.446 -0.32,-27.339l31.502,-190.392l-83.665,0l-32.88,197.455c-6.278,37.877 1.441,65.375 23.223,82.544c17.136,13.565 40.038,20.324 68.674,20.324c25.289,0 47.774,-6.15 67.474,-18.37c14.622,-9.161 25.704,-19.459 33.232,-30.766c7.543,-10.858 12.748,-24.984 15.647,-42.457l34.738,-208.73l-83.698,0l-31.678,190.568m963.157,135.187c-5.445,-6.037 -12.492,-9.064 -21.141,-9.064c-8.968,0 -16.976,2.914 -24.183,8.888c-7.207,5.926 -11.531,13.069 -12.973,21.445c-1.601,8.44 0,15.647 5.766,21.573c5.285,5.942 12.332,8.905 21.461,8.905c8.648,0 16.656,-2.963 23.863,-8.905c7.207,-5.926 11.531,-12.957 12.812,-21.06c1.602,-8.633 0,-15.856 -5.605,-21.782m-89.046,0c-4.965,-5.957 -12.012,-8.888 -20.981,-8.888c-8.808,0 -16.656,2.931 -23.863,8.888c-7.367,5.926 -11.531,13.117 -12.972,21.621c-1.602,8.328 0,15.471 5.765,21.397c5.285,5.958 12.172,8.921 20.981,8.921c8.648,0 16.656,-2.963 23.863,-8.921c7.207,-6.054 11.691,-13.165 12.972,-21.397c1.602,-8.504 0,-15.695 -5.765,-21.621m-1.602,267.844c-2.242,13.133 -5.285,22.422 -9.289,27.707c-3.844,4.965 -9.769,7.367 -17.937,7.367c-7.688,0 -12.813,-2.563 -15.215,-8.008c-2.402,-5.285 -2.402,-14.414 0,-27.386l31.711,-190.281l-83.745,0l-32.832,197.488c-6.31,37.796 1.441,65.343 23.19,82.48c17.153,13.453 40.055,20.339 68.723,20.339c25.144,0 47.726,-6.246 67.425,-18.418c14.574,-9.128 25.625,-19.378 33.152,-30.749c7.528,-10.891 12.813,-24.985 15.696,-42.442l34.753,-208.698l-83.601,0l-31.711,190.601m-1101.84,-506.347c-1.442,8.024 -5.269,14.254 -11.836,18.69c-6.598,4.469 -14.894,6.663 -24.904,6.663l-5.605,0l8.424,-50.577c2.002,-0.16 3.748,-0.16 5.141,-0.32l3.523,0c19.667,0 28.108,8.52 25.257,25.624m-46.077,87.381c10.859,0 18.979,2.547 24.328,7.671c5.365,5.125 7.303,12.22 5.797,21.269c-1.601,9.081 -5.845,16.304 -12.924,21.685c-7.159,5.413 -15.904,8.072 -26.346,8.072l-2.995,0c-1.121,0 -2.578,-0.16 -4.196,-0.32l9.722,-58.313l6.614,0l0,-0.064Zm129.694,-90.664c4.132,-24.824 -1.442,-45.116 -16.576,-60.827c-15.007,-15.247 -40.664,-22.87 -77.083,-22.87l-97.342,0l-49.056,295.038l117.186,0c27.995,0 51.81,-7.736 71.541,-23.319c19.811,-15.423 31.823,-35.762 36.051,-61.115c3.347,-20.163 0.801,-35.554 -7.671,-46.269c-8.473,-10.714 -23.383,-17.585 -44.828,-20.644c39.046,-3.059 61.628,-23.046 67.762,-59.994m334.708,211.341l12.508,-75.289c2.002,-11.611 3.412,-25.128 4.453,-40.519c0.961,-15.439 1.601,-33.521 1.601,-54.293c0.961,9.193 2.563,18.818 4.388,28.972c1.794,10.122 3.94,20.997 6.359,32.56l23.542,108.569l80.622,0l49.088,-295.038l-80.638,0l-11.051,66.32c-2.018,12.332 -3.779,27.643 -5.189,45.837c-1.441,18.241 -2.738,40.167 -3.924,65.792l-4.308,-26.01c-1.601,-10.33 -3.331,-19.41 -4.852,-27.338c-1.602,-7.896 -2.883,-14.927 -4.149,-21.029l-24.119,-103.94l-76.042,0l-49.055,295.054l80.654,0m324.891,-144.348c-7.944,47.774 -27.034,72.358 -57.24,73.767l24.985,-150.257l2.61,0c12.989,0 22.134,6.902 27.483,20.676c5.349,13.661 6.054,32.207 2.162,55.814m86.003,-2.947c8.248,-49.744 -0.32,-88.406 -26.089,-116.033c-19.491,-21.14 -49.904,-31.726 -91.257,-31.726l-72.23,0l-49.103,295.054l78.3,0c43.194,0 77.627,-11.355 103.188,-34.017c29.981,-26.634 49.007,-64.415 57.191,-113.278m81.647,147.295l12.524,-75.305c2.002,-11.612 3.412,-25.129 4.421,-40.52c0.961,-15.439 1.601,-33.504 1.601,-54.292c1.282,9.193 2.595,18.818 4.389,28.972c1.809,10.138 3.939,20.996 6.39,32.575l23.527,108.57l80.59,0l49.167,-295.054l-80.67,0l-11.051,66.32c-2.05,12.332 -3.779,27.659 -5.221,45.852c-1.441,18.242 -2.706,40.151 -3.891,65.776l-4.325,-25.993c-1.809,-10.33 -3.331,-19.427 -4.868,-27.355c-1.602,-7.879 -2.883,-14.91 -4.116,-21.012l-24.104,-103.588l-76.025,0l-49.04,295.054l80.622,0m305.048,-295.054l-83.761,0l-49.008,295.054l83.601,0l49.168,-295.054m45.964,295.054c28.508,0 53.492,-9.081 75.113,-27.259c21.621,-18.193 34.754,-41.288 39.398,-69.315c2.723,-16.48 1.602,-30.862 -4.324,-43.13c-5.605,-12.268 -16.336,-24.263 -32.031,-35.955l-11.691,-9c-10.25,-7.512 -14.574,-15.039 -13.293,-22.694c1.601,-4.661 3.523,-8.649 8.328,-11.964c4.805,-3.443 10.25,-5.173 16.816,-5.173c8.328,0 16.496,2.947 24.184,8.713c7.687,5.797 14.093,13.725 19.218,23.783l14.895,-88.438c-18.738,-9.738 -37.957,-14.622 -57.816,-14.622c-22.422,0 -42.441,6.15 -60.379,18.434c-6.406,4.292 -12.332,9.273 -17.617,14.862c-5.445,5.605 -10.25,11.787 -14.734,18.53c-9.129,14.526 -14.895,28.395 -16.977,41.704c-1.601,7.736 -1.601,15.119 0,22.15c0,6.983 2.403,13.773 5.446,20.308c2.882,6.646 7.046,13.02 12.492,19.25c5.285,6.198 12.011,12.444 20.019,18.738l12.172,9.738c8.648,7.255 12.332,14.686 11.051,22.309c-1.602,5.302 -3.844,9.706 -8.969,13.197c-5.125,3.54 -11.371,5.253 -18.578,5.253c-19.059,0 -35.074,-10.698 -48.047,-32.111l-15.054,90.696c21.14,7.992 41.48,11.996 61.179,11.996m382.771,-193.82c-4.324,25.256 -14.094,37.861 -29.629,37.861c-16.496,0 -22.421,-12.509 -18.418,-37.461c4.325,-26.457 14.735,-39.67 30.91,-39.67c15.696,0 21.461,13.068 17.137,39.27m64.863,-72.326c-15.535,-19.299 -38.437,-28.908 -68.867,-28.908c-32.031,0 -59.738,9.673 -82.8,29.052c-23.223,19.555 -37.156,44.699 -42.441,75.337c-4.164,25.433 0,47.198 11.211,65.311c12.011,17.745 28.507,26.586 49.968,26.586c8.488,0 18.738,-2.755 30.75,-8.424c-4.004,4.644 -7.527,8.84 -10.731,12.748c-3.203,3.892 -6.085,7.415 -8.488,10.57l-63.581,83.874l89.847,0l36.835,-50.673c43.402,-59.418 67.906,-105.927 73.512,-139.48c5.125,-31.374 0,-56.727 -15.215,-75.993m173.128,120.036c-4.485,25.945 -9.77,44.988 -16.176,57.208c-6.727,12.219 -14.734,18.321 -24.023,18.321c-17.617,0 -21.621,-27.915 -12.492,-83.793c7.847,-46.733 20.66,-70.116 38.597,-70.116c18.097,0 22.742,26.105 14.094,78.38m72.23,-109.29c-14.735,-26.425 -39.238,-39.654 -73.512,-39.654c-33.792,0 -62.781,13.052 -86.964,39.11c-24.344,25.993 -39.879,61.259 -47.246,105.91c-8.007,47.246 -4.324,84.034 11.211,110.347c15.535,26.458 41,39.671 76.074,39.671c32.511,0 60.539,-13.069 84.241,-39.27c23.543,-26.346 39.238,-61.804 46.606,-106.327c7.847,-46.718 4.164,-83.313 -10.41,-109.787m-2027.09,511.76c-7.943,47.886 -27.018,72.39 -57.223,73.832l24.984,-150.226l2.611,0c12.956,0 22.149,6.887 27.466,20.66c5.398,13.613 6.086,32.191 2.162,55.734m86.036,-2.883c8.248,-49.648 -0.481,-88.405 -26.089,-116.112c-19.507,-21.061 -49.937,-31.631 -91.273,-31.631l-72.246,0l-49.055,295.086l78.283,0c43.178,0 77.58,-11.371 103.156,-34.113c30.013,-26.586 49.056,-64.382 57.224,-113.23m139.111,-147.743l-83.697,0l-49.072,295.086l83.697,0l49.072,-295.086m144.924,295.086l11.739,-70.628l-71.861,0l6.902,-41.481l64.431,0l11.723,-70.628l-64.414,0l6.967,-41.801l71.845,0l11.756,-70.548l-155.559,0l-49.088,295.086l155.559,0m294.958,-108.585l30.958,0c-0.961,5.765 -2.563,11.051 -4.757,15.695c-2.178,4.645 -4.772,8.648 -7.799,12.012c-3.027,3.203 -6.471,5.765 -10.378,7.527c-3.924,1.762 -8.104,2.723 -12.493,2.723c-11.13,0 -18.289,-5.446 -21.572,-16.336c-3.284,-10.891 -2.899,-28.348 0.961,-52.531c9.417,-56.695 25.656,-85.043 48.655,-85.043c6.566,0 11.563,2.723 15.006,8.168c3.444,5.446 4.997,12.813 4.645,22.102l85.795,-28.348c-14.046,-48.367 -45.548,-72.47 -94.492,-72.47c-36.948,0 -68.258,13.373 -93.931,39.799c-25.689,26.585 -42.393,62.941 -50.048,109.065c-7.576,45.645 -2.963,81.359 13.853,107.464c16.977,25.785 44.139,38.758 81.455,38.758c37.973,0 68.883,-13.293 92.682,-39.718c21.829,-24.184 37.316,-63.902 46.477,-118.996l2.002,-11.851l-116.769,0l-10.33,61.98m286.021,-91.449c-1.81,10.891 -6.486,19.699 -14.062,26.746c-7.607,7.047 -16.223,10.57 -25.865,10.57l-5.621,0l11.739,-70.308l2.995,0c24.183,0 34.481,10.891 30.814,32.992m82.544,3.363c5.541,-33.312 -2.082,-59.097 -22.886,-77.194c-16.4,-14.158 -43.418,-21.221 -81.183,-21.221l-85.683,0l-49.072,295.086l83.265,0l17.185,-103.3l2.658,-19.379c0.801,4.004 1.442,7.527 2.002,10.41c0.641,2.883 0.801,5.285 0.961,7.047l23.879,105.222l90.536,0l-41.848,-122.679c34.257,-13.613 54.34,-38.277 60.282,-73.992m328.382,196.671l12.492,-75.433c1.922,-11.531 3.363,-24.984 4.485,-40.359c1.601,-15.535 1.601,-33.633 1.601,-54.293c1.602,9.129 2.563,18.738 4.324,28.828c1.762,10.25 3.844,20.98 6.407,32.672l23.542,108.585l80.558,0l49.168,-295.086l-80.718,0l-11.051,66.384c-2.082,12.332 -3.683,27.547 -5.125,45.805c-1.601,18.257 -2.722,40.199 -4.004,65.824l-4.164,-26.106c-1.922,-10.25 -3.363,-19.379 -4.965,-27.226c-1.601,-8.008 -2.882,-15.055 -4.164,-21.141l-24.023,-103.54l-76.074,0l-49.007,295.086l80.558,0m327.998,0l11.531,-70.628l-71.75,0l6.887,-41.481l64.543,0l11.371,-70.628l-64.062,0l6.886,-41.801l71.75,0l11.851,-70.548l-155.51,0l-49.008,295.086l155.511,0m115.312,0l12.331,-75.433c2.082,-11.531 3.524,-24.984 4.485,-40.359c1.922,-15.535 1.922,-33.633 1.922,-54.293c0,9.129 2.722,18.738 4.484,28.828c1.922,10.25 4.004,20.98 6.406,32.672l23.383,108.585l80.718,0l49.008,-295.086l-80.719,0l-10.89,66.384c-2.082,12.332 -3.684,27.547 -5.285,45.805c-1.922,18.257 -2.563,40.199 -3.844,65.824l-4.324,-26.106c-2.082,-10.25 -3.203,-19.379 -4.805,-27.226c-1.922,-8.008 -3.043,-15.055 -4.164,-21.141l-24.023,-103.54l-76.074,0l-49.168,295.086l80.719,0" style="fill:#fff;fill-rule:nonzero;"/></g></svg>