<?xml version="1.0" encoding="UTF-8" standalone="no"?><!DOCTYPE svg PUBLIC "-//W3C//DTD SVG 1.1//EN" "http://www.w3.org/Graphics/SVG/1.1/DTD/svg11.dtd"><svg width="100%" height="100%" viewBox="0 0 4167 4167" version="1.1" xmlns="http://www.w3.org/2000/svg" xmlns:xlink="http://www.w3.org/1999/xlink" xml:space="preserve" xmlns:serif="http://www.serif.com/" style="fill-rule:evenodd;clip-rule:evenodd;stroke-linejoin:round;stroke-miterlimit:2;"><rect id="Linke" x="0" y="0" width="4166.67" height="4166.67" style="fill:none;"/><clipPath id="_clip1"><rect id="Linke1" serif:id="Linke" x="0" y="0" width="4166.67" height="4166.67"/></clipPath><g clip-path="url(#_clip1)"><rect x="0" y="0" width="4166.67" height="4166.67" style="fill:#d7d6d6;"/><g><clipPath id="_clip2"><rect id="Die_Linke_logo" x="315.755" y="1687.19" width="3535.16" height="792.279"/></clipPath><g clip-path="url(#_clip2)"><path id="font" d="M3729.28,2479.47c57.012,0 111.219,-45.09 120.254,-101.897c9.603,-60.41 -32.244,-104.583 -91.052,-104.583c-53.396,0 -106.997,46.885 -115.746,101.89c-9.172,57.704 28.622,104.59 86.544,104.59Zm-501.081,-9.921l325.792,0l24.25,-160.492l-150.447,0l15.664,-103.693l134.97,0l24.244,-160.479l-134.976,0l14.298,-94.688l150.441,0l24.244,-160.48l-325.817,0l-102.663,679.832Zm-33.922,0l-103.343,-351.645l189.687,-328.193l-184.823,0l-139.984,289.426l42.839,-289.426l-175.358,0l-102.669,679.832l175.376,0l47.104,-311.962l62.924,311.962l188.247,0l0,0.006Zm-1000.46,0l168.493,0l30.087,-199.259c9.671,-64.034 11.461,-127.138 16.83,-191.147l73.43,390.406l168.486,0l102.67,-679.832l-168.493,0l-26.139,173.107c-11.842,78.438 -10.67,155.971 -15.639,234.422l-80.284,-407.529l-166.771,0l-102.67,679.832Zm-309.411,0l24.225,-160.492l-131.528,0l78.432,-519.34l-175.364,0l-102.67,679.832l306.905,0Zm-823.357,0l325.805,0l24.238,-160.492l-150.435,0l15.658,-103.693l134.964,0l24.237,-160.479l-134.976,0l14.299,-94.688l150.434,0l24.244,-160.48l-325.805,0l-102.663,679.832Zm-69.814,0l102.657,-679.838l-175.364,0l-102.663,679.838l175.37,0Zm-423.043,-510.329c79.941,0 78.182,102.781 67.021,176.717c-9.666,64.015 -39.222,168.605 -119.306,169.503l52.285,-346.22Zm-252.442,510.329l153.028,0c106.591,0 299.216,-28.852 346.6,-342.629c31.035,-205.569 -56.538,-337.203 -255.972,-337.203l-140.987,0l-102.669,679.832Zm1807.14,0l86.494,-555.388l-175.364,0l-86.507,555.388l175.377,0Z" style="fill-rule:nonzero;"/><path id="red" d="M2244.66,1687.19l-338.688,102.37l308.713,90.741l29.975,-193.111Z" style="fill:#dc0000;fill-rule:nonzero;"/></g><g id="Die_Linke_logo1" serif:id="Die_Linke_logo"></g></g></g></svg>