<?xml version="1.0" encoding="UTF-8" standalone="no"?><!DOCTYPE svg PUBLIC "-//W3C//DTD SVG 1.1//EN" "http://www.w3.org/Graphics/SVG/1.1/DTD/svg11.dtd"><svg width="100%" height="100%" viewBox="0 0 4167 4167" version="1.1" xmlns="http://www.w3.org/2000/svg" xmlns:xlink="http://www.w3.org/1999/xlink" xml:space="preserve" xmlns:serif="http://www.serif.com/" style="fill-rule:evenodd;clip-rule:evenodd;stroke-linejoin:round;stroke-miterlimit:2;"><rect id="SPD" x="0" y="0" width="4166.67" height="4166.67" style="fill:none;"/><g id="SPD1" serif:id="SPD"><clipPath id="_clip1"><rect id="Sozialdemokratische_Partei_Deutschlands-_Logo_um_2000" serif:id="Sozialdemokratische_Partei_Deutschlands,_Logo_um_2000" x="0" y="0" width="4166.67" height="4166.67"/></clipPath><g clip-path="url(#_clip1)"><rect x="0" y="0" width="4166.67" height="4166.67" style="fill:#e2001a;"/><path id="S" d="M1066.18,2928.92l159.314,-245.098c-882.353,-490.197 -1299.02,575.98 -502.451,710.784c392.157,61.274 49.02,392.157 -318.627,73.529l-159.314,269.608c906.863,600.49 1495.1,-600.49 563.726,-686.274c-196.079,-12.255 -208.334,-318.628 257.352,-122.549Z" style="fill:#fff;fill-rule:nonzero;"/><path id="P" d="M1348.04,2573.53l0,1286.77l367.647,0l0,-428.921l281.863,0c453.431,0 465.686,-870.098 0,-857.844l-649.51,0Zm367.647,281.863l147.059,0c159.314,0 159.314,306.373 0,306.373l-147.059,0l0,-306.373Z" style="fill:#fff;"/><path id="D" d="M2426.47,2573.53l0,1286.77l563.725,0c723.039,12.255 723.039,-1286.77 12.255,-1286.77l-575.98,0Zm355.392,306.373l61.274,0c453.432,0 453.432,686.274 0,686.274l-61.274,0l0,-686.274Z" style="fill:#fff;"/></g></g></svg>