<svg version="1" xmlns="http://www.w3.org/2000/svg" width="2133.333" height="2133.333" viewBox="0 0 1600.000000 1600.000000"><path d="M344 92.9c-61.7 27.2-94.4 48.6-103.9 68.2-2.9 5.9-3.4 8.3-4.6 21.5-1.6 18.6-3.8 25.2-11.5 34.4-2 2.5-4.2 5.5-4.8 6.7-1.7 3.1-1.5 8.9.4 12.6 2.8 5.3 51.4 77.8 75.9 113.2 44.8 64.6 102.3 143.4 141.9 194.4 6.7 8.6 18.4 23.7 26.1 33.6 42.2 54.5 106.6 133.3 158 193.4 41.1 48.1 38.5 44.9 38.5 48.2 0 3.6 2.6.9-38 39.4-16.8 15.9-36.8 35.1-44.5 42.5-7.7 7.5-27.3 26.4-43.5 42.1-116 112-275.8 272.6-387.1 388.9-42 44-38.4 39.8-37.4 43.1 1.9 6 24.3 29.8 36.8 39.1 10.5 7.7 16.8 11.2 40.3 21.9 10.9 4.9 24 11.3 29 14 19 10.5 36.1 25.2 62.4 53.6 7 7.6 9.2 9.3 12.3 9.9 5.3.9 10.1-.3 13.9-3.4 1.7-1.5 12-13.3 22.7-26.2 34.4-41.4 38.1-45.9 66.6-79.5 81.2-96 187.4-215.3 261-293.5 48.7-51.6 81.2-85.6 131.6-137.3 3.7-3.8 5.3-4.7 8.1-4.7 3.2 0 4.8 1.5 21.9 19.7 63.8 68.3 100.5 106 186.8 192.4 86.5 86.4 163.6 161.4 169.4 164.6 1.2.7 4.8 1.2 7.9 1.3 6.2 0 6.3-.1 23.1-13.7 9.7-7.9 17.9-12 25.9-13.2 7.9-1.1 13.6-.2 27.2 4.3 6.3 2.1 12.8 3.6 15.5 3.6 5.4-.1 13.6-3.2 20.6-8 12.4-8.3 34.2-33.2 53.2-60.5 9-13 29-44 31.8-49.5 2-3.9 1.9-10.9-.3-14.1-.9-1.5-13.2-12.7-27.2-24.9-52-45.5-104.4-93.4-157.5-143.8-57.4-54.6-216.1-215.1-223-225.6-1.1-1.6-1.5-3.5-1.1-5 1.3-5.4 137.3-130.2 225.1-206.6 52.8-46 124.9-106.8 169-142.5 8.1-6.6 19.8-16.1 25.9-21.1 6.1-5 29.1-23.4 51.1-40.8 51.2-40.6 49.2-38.8 50.6-43.7 1-3.3.9-5.3-.6-11.7-4.6-19.7-11.9-34.7-22-44.8-8.5-8.5-14.5-12-40-22.9-31.3-13.4-46-22.3-67-40.5-9.4-8.2-15.5-9.8-22.6-6.2-1.9 1-13.1 10.1-24.9 20.3-11.8 10.2-40.8 35.1-64.5 55.4-98.5 84.6-241 210.7-342.6 303.1-70.4 64-65.1 59.4-68.7 59.4-2.9 0-5.8-3-34-35.3-114.3-130.8-223.6-263.9-340.3-414.2-30.2-39-36.7-47.3-69.3-90-25.4-33.1-24.4-32.7-49.6-21.6z"/><path d="M813.5 91.5c-47.9 4.1-92.5 15.7-156 40.8-43.3 17.1-87.6 38.7-132.5 64.5-23.5 13.6-34.2 20.3-33.8 21.3.9 2.6 100.7 127.8 146.2 183.4 9.9 12.1 18 22.1 18.1 22.3.1.1 8.2-3.6 18.1-8.2 74.9-35.1 143.5-58.1 184.6-61.8 21.8-1.9 45.3 1.5 73.3 10.7 44.3 14.5 82.4 36.4 122.1 70.1l5 4.3 15-13.2c43.8-38.6 121.1-106.1 143.9-125.7 14.3-12.3 27.7-23.9 29.9-25.8l3.8-3.4-4.3-4.5c-5.9-6-34.5-30.6-49.4-42.4-92.1-72.7-182.9-115-278.5-129.4-28.9-4.4-73.8-5.7-105.5-3zM288.8 377.8c-14.1 14.9-34.8 42.4-47.7 63.2-57.9 93.3-90.5 214.4-99.7 369-6.4 107.6 13 220.3 54.4 316 12.4 28.6 32.9 67.8 45.1 85.9.7 1.2 19.8-17.4 86.6-84.5l85.7-85.9-1-3.5c-.5-1.9-3.1-9.6-5.7-17-14.6-41.9-23.3-82-27.1-125.5-1.9-22.5-1.5-67.3 1-90 3.3-30.5 10.6-79 15.2-100.5 10.2-47.5 21.8-76.4 45.5-112.3l7.8-11.7-18.1-23.3C413 534.9 371.4 479.6 355 457c-4.6-6.3-11.8-16.2-16-22-4.2-5.8-16-22.3-26.2-36.7l-18.6-26.2-5.4 5.7zM1375.5 454.6c-64.1 52.5-148 123.4-181.2 153.1l-8.2 7.4 1.5 4.2c2.6 7.3 8.2 28.7 10.8 41.7 10.4 51.1 14 123.1 9.6 191-3.7 56.6-14.1 105.7-28.6 135.3l-2.8 5.7 4.4 4.4c39.6 38.2 153.3 142.8 158.5 145.9 3.3 1.9 35.2-48.8 52.8-83.9 48.4-96.7 70.4-208.6 64.7-328.4-4.4-91.1-21.9-170.2-54.3-245.5-7.9-18.4-16.9-36.7-18.2-37.1-.6-.2-4.6 2.6-9 6.2zM985 1197.7c-50.9 34-109.1 58-168.5 69.2-32.7 6.2-78.1 8.7-111.5 6.2-49.6-3.7-94.8-15.8-131.7-35.1l-11.1-5.9-7.9 8.7c-4.4 4.8-16.5 18.4-26.9 30.2-10.4 11.9-23.7 26.9-29.5 33.5-5.9 6.6-14 15.9-18 20.6-4.1 4.7-18.4 21.2-31.8 36.7-13.4 15.5-25 29-25.7 30-1.2 1.7-.4 2.4 9.4 8.2 34.7 20.7 92.5 47.8 126.2 59.2 34.2 11.6 59 14.4 138.7 15.7 46.7.8 117.8-.2 145.3-1.9 43.1-2.7 60-7 109-28 53.3-22.9 99.9-46.8 136.7-70.1 18-11.4 54.3-36.4 54.3-37.4 0-.3-5.7-6-12.7-12.7-27.3-26.2-76.5-74.2-114.8-112l-21-20.8-8.5 5.7z"/></svg>