<svg viewBox="0 0 218 218" xmlns="http://www.w3.org/2000/svg" fill-rule="evenodd" clip-rule="evenodd" stroke-linecap="round" stroke-linejoin="round" stroke-miterlimit="1.5"><path fill="none" d="M0 0h218v218H0z"/><path d="M133 52c-6-3-10-4-15-4-4 0-12 2-22 7-20 8-32 18-38 29-3 4-5 11-6 20l-1 13c0 10 3 21 8 32 8 16 22 24 41 24 17 0 32-6 46-20 8-7 13-14 16-20 2-6 3-14 3-25 0-12-2-22-5-28a63 63 0 00-27-28zM97 28c6-2 12-3 19-3 15 0 31 7 46 20 19 16 28 38 28 63a78 78 0 01-32 64 102 102 0 01-39 22l-18 1-17-1c-4 0-8-2-14-4a81 81 0 01-43-73l1-7c1-17 5-31 12-42 5-8 13-15 24-23 12-8 23-13 33-17z" fill="#901737" fill-rule="nonzero"/><path d="M136 42c-7-3-12-4-17-4s-13 2-25 7c-21 9-35 20-42 33-3 4-5 12-6 22l-1 14c0 11 3 23 9 35 9 19 24 28 45 28 19 0 36-8 51-22 9-9 15-16 17-23 3-6 4-16 4-28 0-13-2-24-5-31a70 70 0 00-30-31zM96 16c7-3 13-4 20-4 18 0 35 8 52 22 21 19 31 42 31 71a86 86 0 01-35 71 113 113 0 01-43 24l-21 1-19-1-15-5c-15-7-27-18-35-32s-12-30-12-48v-8c2-20 6-35 13-47 6-9 14-17 27-26 13-8 25-14 37-18z" fill="#ea2c5e" fill-rule="nonzero"/><path d="M637 227a464 464 0 01-37-53c3-4-4-6 12-12h2c13 18 26 35 39 50a1527 1527 0 0145-39c6 6 10 3 12 11l-1 2-44 39a466 466 0 0035 38c-11 18-10 6-15 11l-1 1-3-1-32-33a699 699 0 00-44 48c-6-8-10-4-15-12 0 0 0 0 0 0v-1l47-49z" fill="#901737" stroke="#fff" stroke-width="1.2" transform="matrix(1.59478 0 0 1.52786 -927 -236)"/></svg>