<svg viewBox="0 0 3091 975" xmlns="http://www.w3.org/2000/svg" fill-rule="evenodd" clip-rule="evenodd" stroke-linecap="round" stroke-linejoin="round" stroke-miterlimit="1.5"><path fill="none" d="M0 0h3090.67v974.281H0z"/><path d="M310.658 288.595c16.423-5.097 34.827-7.645 55.213-7.645l-12.566-5.434c16.989 0 46.401 7.558 52.913 11.805 6.512 4.247 9.768 11.467 9.768 21.66 0 10.759-3.539 18.121-10.618 22.085-7.078 3.964-19.678 5.946-37.799 5.946-19.253 0-37.374 4.247-54.362 12.741-42.471 20.386-73.616 58.327-93.436 113.822l-10.193 28.031 33.977-2.549c25.482-2.265 19.431-13.587 26.226-15.852 5.663-1.133 31.194 2.377 34.026 2.377 9.06 0 17.328 7.246 22.99 11.777 5.663 4.53 8.495 10.476 8.495 17.837 0 3.964-.85 7.928-2.549 11.892-3.964 8.494-11.892 14.582-23.783 18.263-11.892 3.68-39.357 8.352-82.394 14.015-13.59 2.265-20.386 6.229-20.386 11.892 0 2.265 1.982 8.777 5.946 19.536 10.193 26.049 28.031 46.435 53.513 61.158 13.025 7.362 24.35 11.043 33.977 11.043l13.591-.85c20.386-2.265 39.073-6.512 56.061-12.741 15.29-5.096-10.237-15.343-6.84-15.343 2.265 0 41.1 9.114 46.763 11.945 7.361 5.097 11.042 12.742 11.042 22.935 0 9.06-3.964 16.563-11.892 22.509-7.927 5.946-22.651 12.317-44.169 19.112-20.386 6.229-39.923 9.344-58.61 9.344-21.519 0-77.737-13.305-95.292-21.799-16.422-7.928 4.121-10.904-11.735-27.043-15.855-16.139-27.747-32.985-35.675-50.54-7.928-17.555-11.892-42.188-11.892-73.899 0-27.182 2.407-50.399 7.22-69.652 4.814-19.254 14.299-42.188 28.456-68.803 28.88-55.495 70.218-92.02 124.014-109.575zM522.485 333.156c8.367-3.083 22.678-4.624 42.934-4.624l-4.966-8.695c43.153 0 72.338 21.245 72.338 46.344v3.963c-1.321 10.568-6.605 15.852-15.853 15.852-5.284 0-11.889-1.981-19.815-5.944-9.687-4.844-19.155-7.266-28.402-7.266l-11.889.661c-29.943 2.201-49.318 10.128-58.125 23.778-3.523 4.403-5.284 11.669-5.284 21.797s3.302 17.834 9.908 23.118c6.164 5.284 12.549 8.807 19.154 10.568 6.606 1.761 21.797 3.523 45.576 5.284 70.895 6.165 106.342 35.448 106.342 87.848l-.661 9.247c-2.201 22.458-10.678 43.264-25.429 62.418-14.752 19.155-32.475 32.035-53.171 38.64-20.256 6.165-41.392 9.247-63.409 9.247-23.779 0-43.374-3.632-58.786-10.898-15.412-7.266-39.421-18.15-39.421-30.48 0-3.082 16.523-4.417 16.964-6.178 2.201-7.926 7.265-11.889 15.191-11.889 5.285 0 12.55 1.981 21.797 5.944 12.33 5.284 27.301 7.926 44.915 7.926 25.099-.44 44.585-3.853 58.455-10.238 13.871-6.385 24.329-17.283 31.375-32.695 5.284-11.449 7.926-21.356 7.926-29.723 0-8.366-2.422-15.632-7.266-21.797-5.724-7.045-13.1-12.109-22.127-15.192-9.027-3.082-21.75-19.31-41.565-21.512-41.392-3.522-71.933-3.586-88.225-19.439-14.972-14.531-22.458-27.742-22.458-47.557 0-43.153 24.659-72.656 73.977-88.508zM864.499 318.319a144.146 144.146 0 0136.328-4.624c25.54 0 44.255 7.046 56.144 21.137 6.605 7.045 9.907 13.43 9.907 19.154 0 4.844-2.642 9.908-7.926 15.192-4.403 4.403-8.586 6.605-12.549 6.605-4.404 0-19.343-4.662-29.471-11.708-7.926-5.284-8.399-6.786-16.765-6.786-4.404 0-13.21 1.541-26.421 4.623-18.934 4.844-38.089 14.422-57.464 28.733s-32.585 28.512-39.631 42.603c-7.926 17.173-11.889 36.108-11.889 56.804 0 9.247.661 18.054 1.982 26.42 5.284 33.026 17.833 58.565 37.649 76.619 15.412 14.091 32.805 21.137 52.18 21.137 6.165 0 13.21-.661 21.136-1.982 11.89-2.202 27.412-6.495 46.567-12.88 19.154-6.385 30.713-11.119 34.676-14.201 3.523-2.642-7.555-8.817-2.64-10.756 6.091-2.402 27.838 5.415 34.015 12.077 4.443 4.792 8.256 7.706 8.256 12.55 0 12.77-15.412 25.65-46.236 38.64-30.824 12.99-61.427 19.705-91.811 20.145h-2.642c-45.795 0-81.903-19.815-108.324-59.446-19.815-30.824-29.723-66.931-29.723-108.323 0-26.421 4.404-49.098 13.211-68.033 10.127-23.338 27.631-44.805 52.51-64.4 24.879-19.595 51.19-32.695 78.931-39.3zM1048.39 326.014c3.083-7.046-3.203-18.174 3.402-18.174 7.926 0 25.661 13.77 30.945 26.1 2.202 6.165 3.963 27.521 5.284 64.069 2.642 39.191 4.183 59.006 4.624 59.446 1.761 1.762 20.255 2.642 55.483 2.642 35.227-.44 54.602-2.201 58.124-5.284 3.083-2.201 4.624-11.448 4.624-27.741 0-5.284-.22-14.421-.66-27.411-.441-12.99-.661-22.568-.661-28.732 0-21.137 2.202-34.127 6.605-38.971 3.963-4.403-.502-14.396 4.782-14.396 7.926 0 23.4 12.415 28.244 21.662 4.403 8.807 6.605 51.52 6.605 128.139 0 64.73-.991 102.82-2.973 114.268-1.981 11.449-8.476 17.174-19.485 17.174-9.247 0-26.06-9.349-28.922-16.174-2.863-6.825 6.465-15.751 6.465-38.649v-39.63h-59.446l-60.106.66v40.952c0 23.778-1.432 39.19-4.294 46.236-2.862 7.045-8.917 10.568-18.164 10.568-8.366 0-24.78-9.506-26.982-14.79-3.963-7.926 4.525-40.913 3.204-112.689v-13.21c-.881-55.483-1.321-85.206-1.321-89.169 0-25.54 1.541-41.172 4.623-46.896zM2244.61 337.921c7.045-4.843 27.482-13.152 32.325-13.152 6.606 0-.621 10.07 7.306 18.437 12.329 12.769 22.567 33.906 30.713 63.409 8.147 29.502 16.623 74.197 25.43 134.083 7.926 55.483 11.889 88.949 11.889 100.398 0 7.926 13.404 7.078 10.321 11.041-3.522 4.403-23.751 13.398-30.797 13.398-7.485 0-13.1-2.752-16.843-8.257-3.743-5.504-6.275-14.861-7.596-28.071-2.642-24.659-7.485-59.226-14.531-103.7-7.045-44.475-12.109-73.317-15.192-86.527-5.724-20.696-9.907-34.347-12.549-40.952l-6.605-14.531-25.1 30.383c-40.511 46.676-52.05 83.948-59.976 107.286-6.605 18.054-27.211 24.816-36.458 24.816-1.321 0-3.743-.44-7.266-1.321-5.724-1.321-16.293-14.751-31.704-40.291-12.77-22.457-26.311-43.594-40.622-63.409-14.311-19.815-22.787-29.723-25.43-29.723h-.66c-7.486 8.367-11.229 48.658-11.229 120.874v68.032c0 19.375-.33 31.595-.991 36.659-.66 5.063 10.822 3.482 8.18 6.124-4.404 4.404-21.94 12.04-26.344 12.04-4.403 0-9.247-1.982-14.531-5.945-3.963-3.082-6.495-8.036-7.596-14.861-1.101-6.826-2.311-24.329-3.632-52.511-.881-14.531-1.321-34.126-1.321-58.786 0-53.721 6.164-99.957 18.494-138.707 5.724-16.733 10.898-28.182 15.522-34.346 4.623-6.165 27.434-15.588 34.92-15.588 7.045 0-4.096 8.102.087 11.625 4.183 3.522 11.559 13.21 22.127 29.062l66.712 94.453c.88 0 10.348-11.889 28.402-35.668 37.869-50.198 66.051-82.123 84.545-95.774zM2544.03 381.782c-4.404-5.284-9.468-7.926-15.192-7.926-9.247 0-19.926 8.587-32.035 25.76-12.109 17.173-22.127 37.869-30.053 62.088-4.844 14.531-7.266 22.457-7.266 23.778 0 .441 3.743.661 11.229.661 71.335 0 107.003-1.982 107.003-5.945 0-5.724-1.321-14.531-3.963-26.42-7.046-34.347-16.954-58.345-29.723-71.996zm-42.273-45.575c8.366-3.963 18.274-5.945 29.723-5.945 9.687 0 17.393 1.542 23.118 4.624 13.65 7.486 26.31 21.797 37.979 42.933s19.926 45.355 24.769 72.656c4.844 23.779 7.706 36.769 8.587 38.97.44 1.762.66 7.486.66 17.174 0 11.889-.22 20.916-.66 27.081-1.761 26.42-2.642 47.777-2.642 64.069-.44 12.33-1.211 20.586-2.312 24.769-1.101 4.184 13.344-.568 9.821 2.955-5.284 5.284-26.444 16.53-29.966 16.53-3.083 0-7.486-2.201-13.211-6.605-4.403-3.522-7.045-7.706-7.926-12.549-.88-4.844-1.321-19.595-1.321-44.255v-50.859l-62.088 1.982c-41.392.88-62.528 1.761-63.409 2.642-.881.88-1.321 7.926-1.321 21.136l.661 30.384v13.87c0 22.458 18.372 28.384 16.17 34.989-2.201 6.606-26.518 18.513-34.004 18.513-14.531 0-23.558-15.853-27.081-47.557-1.321-9.247-1.982-19.375-1.982-30.384 0-35.227 4.404-70.014 13.211-104.36 7.485-30.384 19.264-58.235 35.337-83.555 16.072-25.32 32.035-41.722 47.887-49.208zM2680.18 242.34c38.024-2.173 79.126 7.972 122.582 7.972h26.889l85.554.814 10.592 11.408c6.519 7.061 40.736 13.921 40.736 18.81 0 3.259 1.831-2.609-3.601 4.452-1.013 1.216-32.727 11.682-33.551 12.557-1.385 1.472-7.214 3.188-8.065 3.699-1.358.814-4.074 1.629-8.148 2.444s-10.457 1.222-19.148 1.222c-2.716 0-7.876-.136-15.481-.407-7.605-.272-14.123-.408-19.555-.408l-61.11-2.444-3.26 136.887c-1.086 49.974-1.629 85.554-1.629 106.738 0 30.42.543 52.148 1.629 65.185 1.087 13.036 1.63 20.641 1.63 22.814 0 9.234 30.252 7.057 26.45 12.489-4.889 7.605-43.561 20.918-51.709 20.918-13.58 0-22.814-8.42-27.703-25.259-2.716-7.062-4.074-64.641-4.074-172.738v-161.33l-59.48.814c-4.346 0-9.914.136-16.704.408-6.79.271-11.271.407-13.444.407-19.555 0-32.321-2.716-38.296-8.148-5.975-5.975-8.963-12.222-8.963-18.74 0-10.321 4.482-17.247 13.445-20.778 8.962-3.531 30.192-17.613 64.414-19.786zM1697.36 289.62c-18.543-9.272-34.769-13.908-48.676-13.908-15.453 0-40.564 7.727-75.333 23.18-64.901 29.36-107.01 63.356-126.326 101.988-8.499 14.68-14.68 38.246-18.544 70.696-2.317 14.681-3.476 28.974-3.476 42.882 0 36.314 8.885 73.401 26.656 111.26 27.815 57.175 73.4 85.763 136.757 85.763 55.63 0 106.624-23.179 152.982-69.538 25.497-26.269 42.302-49.642 50.415-70.117s12.169-50.028 12.169-88.66c0-41.722-5.408-74.173-16.225-97.352-9.272-19.316-22.407-38.053-39.405-56.21-16.998-18.157-33.996-31.485-50.994-39.984zm-118.214-83.445c19.316-6.954 39.405-10.431 60.266-10.431 52.539 0 104.306 23.179 155.3 69.538 61.812 57.175 92.717 130.576 92.717 220.202 0 57.948-14.68 109.328-44.04 154.141-14.68 22.407-35.349 45.393-62.005 68.959-26.656 23.565-53.505 41.915-80.547 55.05-23.179 11.59-39.598 18.35-49.256 20.282-9.658 1.931-29.553 2.897-59.686 2.897-29.361 0-49.256-.966-59.687-2.897-10.43-1.932-24.917-7.533-43.461-16.805-44.813-21.634-79.775-54.664-104.885-99.091-25.111-44.427-37.667-94.841-37.667-151.244l1.159-24.338c4.636-61.039 18.157-110.101 40.564-147.188 15.453-26.27 42.109-52.926 79.968-79.968 37.859-27.043 74.946-46.745 111.26-59.107z" fill="#901737" fill-rule="nonzero"/><path d="M1075.17 494.495l16.18 10.511h112.18l2.55-20.59-130.91 10.079zM2603.11 514.716l-24.588 13.221-104.47 2.82v-17.363l129.058 1.322z" fill="#5d0f24"/><path d="M272.17 280.339c16.422-5.097 34.826-7.645 55.212-7.645h5.097c16.988 0 28.738 2.123 35.25 6.371 6.513 4.247 9.769 11.467 9.769 21.66 0 10.759-3.539 18.121-10.618 22.085-7.078 3.963-19.678 5.945-37.799 5.945-19.253 0-37.374 4.248-54.363 12.742-42.471 20.386-73.616 58.326-93.436 113.822l-10.193 28.03 33.977-2.548c25.483-2.265 41.622-4.53 48.417-6.795 5.663-1.133 9.91-1.699 12.741-1.699 9.061 0 16.422 2.265 22.085 6.795 5.663 4.53 8.494 10.476 8.494 17.838 0 3.964-.849 7.928-2.548 11.892-3.964 8.494-11.892 14.582-23.784 18.262-11.892 3.681-39.356 8.353-82.393 14.016-13.591 2.265-20.386 6.229-20.386 11.892 0 2.265 1.982 8.777 5.946 19.536 10.193 26.049 28.03 46.435 53.513 61.158 13.024 7.362 24.35 11.043 33.977 11.043l13.59-.85c20.386-2.265 39.074-6.512 56.062-12.741 15.289-5.097 24.633-7.645 28.031-7.645 2.265 0 6.229 1.416 11.891 4.247 7.362 5.097 11.043 12.741 11.043 22.934 0 9.061-3.964 16.564-11.892 22.51-7.928 5.946-22.651 12.317-44.17 19.112-20.386 6.229-39.922 9.344-58.609 9.344-21.519 0-41.056-4.248-58.61-12.742-16.422-7.928-32.561-19.961-48.417-36.1-15.856-16.139-27.748-32.986-35.675-50.54-7.928-17.555-11.892-42.188-11.892-73.9 0-27.181 2.406-50.398 7.22-69.652 4.813-19.253 14.298-42.187 28.455-68.803 28.88-55.495 70.219-92.02 124.015-109.574zM500.7 320.771c8.367-3.082 22.678-4.623 42.933-4.623h2.643c43.153 0 64.73 12.549 64.73 37.649v3.963c-1.321 10.568-6.606 15.852-15.853 15.852-5.284 0-11.889-1.982-19.815-5.945-9.687-4.843-19.155-7.265-28.402-7.265l-11.889.66c-29.943 2.202-49.318 10.128-58.125 23.779-3.523 4.403-5.284 11.669-5.284 21.797 0 10.127 3.302 17.833 9.907 23.117 6.165 5.285 12.55 8.807 19.155 10.569 6.605 1.761 21.797 3.522 45.576 5.284 70.894 6.164 106.342 35.447 106.342 87.848l-.661 9.247c-2.201 22.457-10.678 43.263-25.429 62.418-14.752 19.155-32.476 32.035-53.172 38.64-20.255 6.165-41.392 9.247-63.409 9.247-23.778 0-43.373-3.633-58.785-10.898-15.412-7.266-23.118-17.064-23.118-29.393 0-3.082.22-5.504.661-7.266 2.201-7.926 7.265-11.889 15.191-11.889 5.284 0 12.55 1.982 21.797 5.945 12.33 5.284 27.301 7.926 44.915 7.926 25.099-.44 44.584-3.853 58.455-10.238 13.871-6.385 24.329-17.283 31.374-32.695 5.285-11.449 7.927-21.357 7.927-29.723 0-8.367-2.422-15.632-7.266-21.797-5.724-7.046-13.1-12.11-22.127-15.192-9.027-3.082-23.448-5.724-43.264-7.926-41.392-3.523-70.234-13.21-86.527-29.063-14.971-14.531-22.457-31.704-22.457-51.519 0-43.154 24.659-72.657 73.977-88.509zM845.064 310.062a144.196 144.196 0 0136.328-4.623c25.54 0 44.255 7.045 56.144 21.136 6.605 7.046 9.907 13.431 9.907 19.155 0 4.844-2.642 9.908-7.926 15.192-4.403 4.403-8.586 6.605-12.549 6.605-4.404 0-11.669-3.523-21.797-10.568-7.926-5.284-16.073-7.926-24.439-7.926-4.403 0-13.21 1.541-26.421 4.623-18.934 4.844-38.089 14.421-57.464 28.732s-32.585 28.512-39.631 42.603c-7.926 17.174-11.889 36.108-11.889 56.804 0 9.247.661 18.054 1.982 26.421 5.284 33.025 17.834 58.565 37.649 76.619 15.412 14.091 32.805 21.136 52.18 21.136 6.165 0 13.21-.66 21.137-1.981 11.889-2.202 27.411-6.495 46.566-12.88 19.154-6.385 30.713-11.119 34.676-14.201 3.523-2.642 7.926-3.963 13.211-3.963 6.605 0 12.659 1.761 18.164 5.284 5.504 3.523 8.256 7.706 8.256 12.55 0 12.769-15.412 25.649-46.236 38.639-30.824 12.99-61.427 19.706-91.811 20.146h-2.642c-45.795 0-81.903-19.815-108.324-59.446-19.815-30.824-29.723-66.932-29.723-108.324 0-26.42 4.404-49.098 13.211-68.032 10.128-23.338 27.631-44.805 52.51-64.4 24.88-19.595 51.19-32.695 78.931-39.301zM1035.44 317.758c3.082-7.046 7.926-10.569 14.531-10.569 7.926 0 14.531 6.165 19.815 18.495 2.202 6.164 3.963 27.521 5.284 64.069 2.642 39.19 4.184 59.006 4.624 59.446 1.761 1.762 20.256 2.642 55.483 2.642 35.227-.44 54.602-2.202 58.125-5.284 3.082-2.202 4.623-11.449 4.623-27.741 0-5.284-.22-14.422-.66-27.412-.44-12.99-.661-22.567-.661-28.732 0-21.136 2.202-34.126 6.605-38.97 3.964-4.403 8.587-6.605 13.871-6.605 7.926 0 14.311 4.624 19.155 13.871 4.403 8.807 6.605 51.52 6.605 128.139 0 64.73-.991 102.819-2.972 114.268-1.982 11.449-8.477 17.173-19.485 17.173-9.247 0-15.302-3.412-18.164-10.237-2.862-6.826-4.294-21.687-4.294-44.585v-39.631h-59.446l-60.106.661v40.952c0 23.778-1.431 39.19-4.293 46.235-2.863 7.046-8.917 10.569-18.164 10.569-8.367 0-13.651-2.643-15.853-7.927-3.963-7.926-6.605-47.777-7.926-119.552v-13.21c-.88-55.483-1.321-85.206-1.321-89.169 0-25.54 1.541-41.172 4.624-46.896zM1706.13 255.294c-20.561-10.281-38.552-15.421-53.973-15.421-17.134 0-44.977 8.567-83.529 25.701-71.963 32.555-118.654 70.25-140.071 113.086-9.424 16.277-16.278 42.407-20.561 78.388-2.57 16.278-3.856 32.127-3.856 47.548 0 40.265 9.853 81.387 29.557 123.366 30.841 63.396 81.387 95.094 151.637 95.094 61.683 0 118.226-25.701 169.628-77.104 28.272-29.128 46.905-55.043 55.901-77.746 8.995-22.703 13.493-55.472 13.493-98.307 0-46.262-5.997-82.244-17.991-107.945-10.281-21.418-24.845-42.193-43.692-62.326-18.848-20.132-37.695-34.911-56.543-44.334zm-131.076-92.525c21.417-7.71 43.692-11.565 66.823-11.565 58.256 0 115.656 25.701 172.198 77.103 68.537 63.397 102.805 144.784 102.805 244.162 0 64.253-16.277 121.224-48.832 170.913-16.278 24.845-39.195 50.332-68.751 76.462-29.556 26.129-59.327 46.476-89.312 61.04-25.701 12.851-43.906 20.347-54.615 22.489-10.709 2.141-32.769 3.212-66.181 3.212-32.554 0-54.615-1.071-66.18-3.212-11.566-2.142-27.629-8.353-48.19-18.634-49.689-23.988-88.455-60.612-116.298-109.873-27.843-49.26-41.765-105.161-41.765-167.7l1.285-26.987c5.141-67.679 20.133-122.08 44.977-163.202 17.135-29.129 46.691-58.685 88.67-88.67 41.978-29.985 83.1-51.831 123.366-65.538zM2263.47 329.665c7.045-4.844 12.99-7.265 17.833-7.265 6.606 0 13.871 4.183 21.797 12.549 12.33 12.77 22.568 33.906 30.714 63.409 8.146 29.503 16.623 74.198 25.43 134.084 7.926 55.483 11.889 88.949 11.889 100.398 0 7.926-1.541 13.87-4.624 17.833-3.522 4.404-8.806 6.606-15.852 6.606-7.486 0-13.1-2.753-16.843-8.257-3.743-5.504-6.275-14.861-7.596-28.072-2.642-24.659-7.486-59.225-14.531-103.7-7.045-44.474-12.109-73.316-15.192-86.527-5.724-20.696-9.907-34.346-12.55-40.951l-6.605-14.532-25.099 30.384c-40.511 46.676-64.73 81.683-72.656 105.021-6.605 18.054-14.531 27.081-23.779 27.081-1.321 0-3.742-.44-7.265-1.321-5.725-1.321-16.293-14.751-31.705-40.291-12.77-22.457-26.31-43.594-40.621-63.409-14.311-19.815-22.788-29.723-25.43-29.723h-.66c-7.486 8.366-11.229 48.657-11.229 120.873v68.033c0 19.375-.33 31.594-.991 36.658-.66 5.064-2.312 8.917-4.954 11.559-4.403 4.404-8.806 6.605-13.21 6.605-4.403 0-9.247-1.981-14.531-5.944-3.963-3.083-6.495-8.036-7.596-14.862-1.101-6.825-2.312-24.329-3.633-52.51-.88-14.532-1.321-34.127-1.321-58.786 0-53.721 6.165-99.957 18.495-138.707 5.724-16.733 10.898-28.182 15.522-34.347 4.623-6.164 10.678-9.247 18.164-9.247 7.045 0 12.659 1.762 16.843 5.284 4.183 3.523 11.559 13.211 22.127 29.063l66.711 94.453c.881 0 10.348-11.889 28.402-35.668 37.87-50.199 66.051-82.123 84.546-95.774zM2567.4 369.398c-4.403-5.284-9.467-7.926-15.192-7.926-9.247 0-19.925 8.586-32.035 25.76-12.109 17.173-22.127 37.869-30.053 62.088-4.844 14.531-7.265 22.457-7.265 23.778 0 .44 3.742.661 11.228.661 71.335 0 107.003-1.982 107.003-5.945 0-5.725-1.321-14.531-3.963-26.421-7.046-34.346-16.953-58.345-29.723-71.995zm-42.273-45.575c8.367-3.963 18.274-5.945 29.723-5.945 9.688 0 17.394 1.541 23.118 4.624 13.651 7.485 26.31 21.796 37.979 42.933 11.67 21.136 19.926 45.355 24.77 72.656 4.843 23.778 7.706 36.768 8.586 38.97.441 1.761.661 7.486.661 17.173 0 11.89-.22 20.917-.661 27.081-1.761 26.421-2.642 47.777-2.642 64.07-.44 12.329-1.211 20.586-2.312 24.769-1.1 4.183-3.412 8.036-6.935 11.559-5.284 5.284-9.687 7.926-13.21 7.926-3.083 0-7.486-2.202-13.21-6.605-4.404-3.523-7.046-7.706-7.926-12.55-.881-4.843-1.321-19.595-1.321-44.254v-50.859l-62.089 1.981c-41.392.881-62.528 1.762-63.409 2.642-.88.881-1.321 7.926-1.321 21.137l.661 30.383v13.871c0 22.457-1.101 36.988-3.303 43.594-2.201 6.605-7.045 9.907-14.531 9.907-14.531 0-23.558-15.852-27.081-47.557-1.321-9.247-1.981-19.375-1.981-30.383 0-35.227 4.403-70.014 13.21-104.361 7.486-30.383 19.265-58.235 35.337-83.554 16.073-25.32 32.035-41.723 47.887-49.208zM2723.16 237.058c38.024-2.172 78.764-3.259 122.22-3.259h26.888l85.555.815 10.592 11.407c6.518 7.062 9.778 13.037 9.778 17.926 0 3.259-2.716 8.419-8.148 15.481-2.716 3.259-4.753 5.296-6.111 6.111-1.358.815-4.074 1.63-8.148 2.444-4.074.815-10.457 1.223-19.148 1.223-2.716 0-7.877-.136-15.481-.408-7.605-.271-14.124-.407-19.556-.407l-61.11-2.445-3.259 136.887c-1.086 49.974-1.63 85.554-1.63 106.739 0 30.419.544 52.147 1.63 65.184 1.086 13.037 1.63 20.642 1.63 22.814 0 9.235-1.902 16.568-5.704 22-4.889 7.605-11.407 11.407-19.555 11.407-13.58 0-22.815-8.419-27.703-25.259-2.716-7.061-4.074-64.64-4.074-172.737V291.65l-59.481.815c-4.346 0-9.913.136-16.703.407-6.79.272-11.272.408-13.445.408-19.555 0-32.32-2.716-38.295-8.148-5.975-5.976-8.963-12.222-8.963-18.741 0-10.321 4.481-17.246 13.444-20.777 8.963-3.531 30.555-6.383 64.777-8.556z" fill="#ea2c5e" fill-rule="nonzero"/><path d="M1550.63 496.089c-72.403-86.446-139.718-177.021-200.047-273.294a10.18 10.18 0 01.674-11.776c17.654-18.57-19.067-28.011 62.92-63.878a10.615 10.615 0 0112.902 3.438c68.834 94.293 137.52 182.619 207.295 264.433 71.327-67.995 145.959-136.502 224.034-205.526a10.614 10.614 0 0114.32.245c31.554 30.539 52.823 13.967 62.041 56.321a10.54 10.54 0 01-3.63 10.641c-81.641 66.056-159.62 135.988-234.255 209.499 59.978 66.24 120.994 127.628 183.79 183.808a10.604 10.604 0 012.034 13.367c-56.725 95.95-53.161 35.999-79.176 57.843-1.995 1.675-4.028 3.408-6.055 5.267a10.614 10.614 0 01-14.633-.255c-57.921-57.197-114.219-115.723-168.207-176.176-76.692 80.905-149.699 165.686-219.393 253.976a10.614 10.614 0 01-16.613.068c-33.441-43.13-50.007-23.588-77.969-62.13l-.001-.001a5.88 5.88 0 01.419-7.421c78.096-85.393 161.173-171.533 249.55-258.449z" fill="#901737" stroke="#fff" stroke-width="7.88"/></svg>